<svg xmlns="http://www.w3.org/2000/svg" width="1100" height="210" viewBox="0 0 1100 210">
  <rect width="1100" height="210" rx="18" fill="#120818"/>
  <g font-family="Segoe UI, Helvetica, Arial, sans-serif" text-anchor="middle">
    <rect x="28" y="58" width="150" height="88" rx="14" fill="#2a1050" stroke="#c084fc"/>
    <text x="103" y="98" font-size="15" fill="#f5c542">Lolalytics</text>
    <text x="103" y="122" font-size="13" fill="#d8c7ff">Actually-Built</text>

    <path d="M186 102 L 214 102" stroke="#3de0ff" stroke-width="3"/>

    <rect x="220" y="58" width="150" height="88" rx="14" fill="#10283a" stroke="#3de0ff"/>
    <text x="295" y="98" font-size="15" fill="#3de0ff">shrink</text>
    <text x="295" y="122" font-size="13" fill="#d8c7ff">Empirical Bayes</text>

    <path d="M378 102 L 406 102" stroke="#3de0ff" stroke-width="3"/>

    <rect x="412" y="58" width="150" height="88" rx="14" fill="#2a1030" stroke="#ff4ecd"/>
    <text x="487" y="98" font-size="15" fill="#ff4ecd">score</text>
    <text x="487" y="122" font-size="13" fill="#d8c7ff">delta then U</text>

    <path d="M570 102 L 598 102" stroke="#3de0ff" stroke-width="3"/>

    <rect x="604" y="58" width="168" height="88" rx="14" fill="#1a2040" stroke="#f5c542"/>
    <text x="688" y="98" font-size="15" fill="#f5c542">joint search</text>
    <text x="688" y="122" font-size="13" fill="#d8c7ff">top cores x late</text>

    <path d="M780 102 L 808 102" stroke="#3de0ff" stroke-width="3"/>

    <rect x="814" y="58" width="258" height="88" rx="14" fill="#14201c" stroke="#4ade80"/>
    <text x="943" y="98" font-size="15" fill="#4ade80">League item set</text>
    <text x="943" y="122" font-size="13" fill="#d8c7ff">7 slots + late swaps</text>
  </g>
</svg>
